<svg width="700" height="700" viewBox="0 0 700 700" fill="none" xmlns="http://www.w3.org/2000/svg">
<path d="M324 7.49998C307.6 8.89998 299.7 9.89998 283.5 13.1C266.2 16.5 261.1 17.7 253 20.3C249.4 21.5 246.3 22.4 246 22.5C243.5 22.7 235 25.7 223.8 30.4C219 32.4 214.8 34 214.4 34C212.4 34 175.8 53.3 165 60.1C152 68.2 126.6 88 113.2 100.4C100.8 111.9 91.8 121.9 72.8 145.5C64.7 155.6 51 177.8 42.1 195.3C34.3 210.6 23.5 235.4 22.6 240C22.3 241.4 21.7 243.8 21.1 245.5C20.6 247.1 19.2 251.3 18 254.8C16.8 258.2 15.7 262 15.5 263.3C14.8 266.6 11.1 283.8 9.89999 289C8.59999 294.2 7.59999 301.3 5.49999 319C2.99999 340.3 3.99999 383.2 7.39999 399C7.69999 400.4 8.09999 403.6 8.39999 406.2C8.69999 408.7 9.29999 412.6 9.89999 414.7C10.4 416.8 11.3 420.9 11.9 423.7C14.6 436.8 15.3 439.7 16.5 443.5C17.2 445.7 18.8 450.9 20 455C22.6 464 23.8 467.2 26.1 472.5C27 474.7 29.7 481 32 486.5C36.6 497.7 49.7 523.3 54.1 529.7C55.7 532 57 534.1 57 534.4C57 537.3 77.5 564.3 93.5 582.4C103.9 594.2 107.4 597.7 120 608.7C152.5 637.2 179.4 654.1 218.1 670.5C228.9 675.1 249.6 682.3 258.1 684.4C259 684.6 261.4 685.3 263.6 685.9C268.4 687.2 285.2 690.8 290 691.5C291.9 691.8 296 692.5 299 693C315.5 695.7 324.7 696.3 350 696.3C365.8 696.3 380.6 695.8 384.8 695.1C391.2 694.1 396.5 693.3 409.5 691.4C411.7 691.1 413.8 690.6 414.1 690.4C414.4 690.2 420.4 688.9 427.4 687.5C434.4 686.1 441.8 684.3 443.8 683.6C445.9 682.8 450.9 681.2 455 680.1C473.9 674.6 512 656.6 533.6 642.8C561.1 625.4 589.6 600.8 609.7 577C618.7 566.4 631.7 549.8 635.1 544.5C653.1 517.1 670.4 481.2 678 456C679.7 450.2 681.8 443.5 682.5 441C683.3 438.5 684.2 434.7 684.6 432.5C684.9 430.3 685.4 428.2 685.6 427.8C686.3 426.8 690.9 400.8 691.6 394.5C691.9 391.7 692.6 385.9 693.1 381.5C694.5 369.3 694.2 332 692.5 316.4C691.7 308.7 689.5 294.4 687.5 284.5C682.7 260.2 676.4 239.3 668.5 221.5C667.8 219.8 666.2 216 665 213C660.6 201.7 643.9 171.5 634 157.1C629.7 150.7 613.1 130.3 601.7 117.4C592.2 106.5 570.8 87.4 552 72.9C535.3 60.1 506.8 43.8 484.6 34.5C478.6 32 472.3 29.3 470.6 28.6C468.9 27.8 465.9 26.7 464 26.1C462.1 25.5 456.2 23.6 451 22C441.3 18.9 430.9 16.2 425.5 15.4C423.9 15.1 421.2 14.5 419.5 14C411.2 11.6 385.7 8.19998 367.6 6.99998C348.7 5.79998 344.4 5.89998 324 7.49998ZM373.5 19.5C378.5 19.8 385.9 20.5 390 21.1C405.1 23.3 415.7 25 418.8 25.9C420.6 26.5 422.1 26.8 422.3 26.8C423.1 26.4 438.4 30.3 447 33C450 34 455 35.5 458 36.4C463.7 38.2 469.8 40.6 478.8 44.6C481.7 45.9 484.3 47 484.7 47C486.2 47 516.3 62.7 524.5 67.7C557.7 88.2 587.8 114.5 607.2 140C609.5 143 613.1 147.5 615.2 149.9C629 165.7 655 214.5 663.5 240.5C667.5 252.8 670.6 263.4 671.8 268.5C672.4 271.2 673.8 277.6 675 282.7C677.9 295.6 680.4 315 682 336.6C683.6 358.5 681.3 387.4 675.8 416C674.7 421.8 673.6 427.4 673.4 428.5C672.5 433.3 670.7 440.7 670 442.5C669.5 443.6 667.7 449.2 666 455C663 464.6 661 470.1 656.1 481.5C655.1 483.7 653.5 487.5 652.5 490C644.6 508.5 625.8 539.8 612.3 556.8C592.5 581.5 580.5 593.6 557 612.7C536 629.7 511.9 644.2 483.5 656.7C470.7 662.4 441.8 672.5 435 673.6C433.6 673.9 431.8 674.3 431 674.6C430.2 674.9 425.1 676 419.6 677.1C414.2 678.1 409.5 679.2 409.1 679.5C408.7 679.7 405.5 680.2 402 680.5C398.5 680.8 395.3 681.3 395 681.5C394.6 681.7 387.7 682.6 379.7 683.5C355.1 686 326.6 685.3 303 681.5C289.3 679.2 272 676 268.5 674.9C266.9 674.5 264.3 673.9 262.8 673.6C261.3 673.3 258.6 672.6 256.8 672.1C255 671.5 248.6 669.4 242.5 667.5C236.5 665.5 230.2 663.3 228.5 662.6C226.9 661.8 221.1 659.3 215.7 657.1C205.3 652.7 176.6 637.8 173.9 635.4C173.1 634.6 172 634 171.7 634C171.3 634 168.7 632.4 166 630.5C163.3 628.6 160.7 627 160.4 627C157.8 627 114.1 590.2 108.4 583.2C106.2 580.6 101.1 574.6 97 569.9C92.9 565.1 86.5 557.4 82.9 552.8C64.9 530 43.5 489.2 34 459.6C32.3 454.6 30.1 447.8 29.1 444.5C28 441.2 26.9 437.4 26.7 436C26.4 434.6 25.7 431.5 25.1 429C23.8 423.5 20.7 405.4 18.4 390.1C16 374.3 16 327 18.4 312.5C22.4 288 23 284.1 24.5 277.5C25.3 273.6 26.2 269.5 26.5 268.2C27.8 260.8 37.1 233 41.2 224C43.1 219.9 45.3 214.9 46 213C46.8 211.1 50.8 203.1 55 195.2C62.4 181 63.1 179.8 66.1 175C67 173.6 69.6 169.3 72.1 165.5C74.5 161.6 78.1 156.5 80.1 154C109.2 117.7 113.3 113.4 138 93.3C157.4 77.6 154.9 79.4 177 65.7C184.4 61.2 203.4 51.2 209 49C211.5 48 216.5 45.8 220.3 44.1C224 42.4 227.3 41 227.6 41C227.9 41 229.6 40.4 231.3 39.6C234.1 38.4 246.8 34.2 249.5 33.6C250.1 33.4 253.7 32.4 257.5 31.3C263.8 29.4 271.2 27.6 276.5 26.6C277.6 26.4 281.9 25.5 286.1 24.6C290.2 23.8 297.8 22.6 302.9 22C308.1 21.4 312.6 20.7 313 20.5C313.4 20.2 320.2 19.8 328.1 19.4C336 19.1 342.7 18.6 343 18.3C343.3 18 348.2 18.1 354 18.5C359.8 18.8 368.6 19.3 373.5 19.5Z" fill="white"/>
<path d="M373 183.9C371.4 187.1 371.6 502.1 373.3 504.4C374.5 506 378.9 506.1 451.5 505.7C525.8 505.3 528.7 505.2 535.1 503.2C563.1 494.6 580.3 476.6 588.1 447.5C589.1 443.8 589.5 434.9 589.5 414C589.5 386.9 589.4 385.2 587.2 378.6C583.6 368 580.8 363.1 573.6 355.3C565.3 346.4 555.4 339.5 545.5 336.1L537.9 333.4L544.7 330C554.6 325 564.1 315.3 568.6 305.5C570.6 301.3 572.3 297.1 572.5 296.1C572.7 295.2 573.4 292.9 573.9 291C575.3 286.5 575.3 249.6 574 245C573.4 243.1 572.7 240.2 572.4 238.6C571.5 233.2 566 220.5 562.4 215.1C558.2 208.8 547.5 198.1 541.3 193.9C533.9 189 526.5 186 514 183.2C512.6 182.9 480.6 182.5 442.8 182.3C375.4 182 374.1 182 373 183.9ZM506.2 215.1C522.2 218.5 533.3 229.4 538.9 247.1C540.5 252.3 540.3 282.6 538.6 289.3C536.4 297.5 532.6 304.2 526.8 309.9C520.5 316.1 513.6 319.7 505.4 321C502.2 321.6 478.7 322 453.3 322H407V268V214H454C484.9 214 502.7 214.4 506.2 215.1ZM522 355.2C522.8 355.4 524.9 356 526.5 356.5C530.6 357.6 539.9 363.3 543.2 366.7C544.6 368.2 547.1 372 548.7 375C554.2 385.4 554.5 387.5 554.5 414.5C554.5 435.8 554.2 440.2 552.7 444.3C548 457.2 542.9 463.3 532.3 468.6L524.5 472.5L465.8 472.8L407 473V413.5V353.9L463.8 354.3C495 354.5 521.2 354.9 522 355.2Z" fill="white"/>
<path d="M175.5 183.6C162.1 186.5 153.1 190.3 143.9 197.1C135.3 203.5 130.3 209 125.2 217.7C120.7 225.3 119.3 228.5 117.8 234C114 248.6 114 247.5 114 344.2C114 410.9 114.3 439.3 115.1 442.7C120.2 463.9 123.7 470.8 136 483.1C143.7 490.8 147 493.3 153.5 496.5C171.7 505.3 168.3 505 246.4 505C297.3 505 313.9 504.7 314.8 503.8C315.6 503 316 498.3 316 489.3C316 477.2 315.8 476 314.1 475C312.8 474.4 291.3 474 251.3 474C217.9 473.9 187.4 473.5 183.6 473C167.6 471 155.4 460.3 149.8 443.2C148.1 438 148 431.8 148 344.1C148 267.9 148.3 249.7 149.4 246C154.2 230.1 163 220.8 178.4 215.4C181.7 214.2 193.2 214 243.8 214H305.1L310.6 208.8L316.1 203.6L315.8 193.6L315.5 183.5L246.5 183.4C208.6 183.3 176.6 183.4 175.5 183.6Z" fill="white"/>
</svg>
