<svg width="652" height="86" viewBox="0 0 652 86" fill="none" xmlns="http://www.w3.org/2000/svg">
<path d="M63.8 1.97033C60.964 3.31016 58.837 5.12287 57.2164 7.72372C54.8868 11.3491 54.8868 11.9008 54.8868 35.072C54.8868 58.1644 54.9881 58.7949 57.2164 62.1051C58.4318 63.9178 61.3691 66.5186 63.6987 67.7796C67.7501 70.144 68.054 70.144 80.7147 70.144C91.8561 70.144 93.7806 69.9864 95.1986 68.7254C97.2243 66.9915 97.4268 63.7601 95.705 62.4203C94.8947 61.7898 90.5394 61.4746 83.0443 61.4746C70.3836 61.4746 66.2308 60.5288 65.1167 57.3762C64.8128 56.3517 64.509 45.9483 64.509 34.2051C64.509 7.32965 63.3948 9.14236 80.4108 8.8271C90.8433 8.59066 92.6664 8.35422 94.6921 6.85677C97.123 5.12287 97.6294 2.44321 95.705 0.94575C94.8947 0.315242 90.2356 -1.24425e-05 81.3224 -1.24425e-05C68.9656 -1.24425e-05 67.7501 0.157615 63.8 1.97033Z" fill="white"/>
<path d="M292.098 1.33982C291.693 1.57626 291.389 16.6296 291.389 34.678C291.389 59.1102 291.693 67.7008 292.604 68.4102C293.415 69.0407 298.378 69.3559 308 69.3559C324.307 69.3559 326.738 68.7254 331.498 63.1297C333.726 60.45 334.233 58.7949 334.739 52.8839C335.347 44.2144 333.726 38.6186 329.574 34.9144L326.535 32.2347L328.966 29.7127C330.992 27.6635 331.498 26.0085 331.701 20.8856C332.207 12.2949 330.688 8.27541 325.32 4.17711L321.066 0.788123H306.886C299.087 0.788123 292.402 1.02456 292.098 1.33982ZM319.141 9.53643C322.18 10.6398 322.787 12.2161 322.787 19.3093C322.787 23.4076 322.281 25.4568 320.762 27.3483L318.736 29.9491H309.62H300.505V19.3093V8.66948H308.607C312.963 8.66948 317.723 9.06355 319.141 9.53643ZM323.091 39.2491C325.016 40.7466 325.421 42.0864 325.725 47.6822C326.332 60.2136 324.914 61.4746 310.633 61.4746H300.505V49.1797V36.8847L310.633 37.2C319.445 37.4364 321.066 37.7517 323.091 39.2491Z" fill="white"/>
<path d="M30.349 17.1552C18.7011 23.618 0.46967 35.6764 0.165813 37.0163C-0.644473 40.1688 1.27996 42.1391 11.206 48.2078C16.7767 51.6756 23.6641 55.9315 26.3988 57.7442C33.894 62.6307 37.9454 64.1281 39.8698 62.8671C43.4148 60.5815 40.8827 55.4586 34.9068 52.3061C27.513 48.3654 12.1175 39.0654 12.1175 38.5137C12.2188 38.1985 16.878 35.2824 22.55 32.051C37.3377 23.5391 41.4904 20.4654 41.4904 17.9434C41.4904 15.579 39.8698 13.9239 37.5403 14.0027C36.6287 14.0027 33.3875 15.4214 30.349 17.1552Z" fill="white"/>
<path d="M192.23 19.0729C190.812 19.6246 188.685 21.6737 187.369 23.5652C185.14 26.8754 185.039 27.8212 185.039 43.5839C185.039 61.8686 185.545 63.839 191.623 67.4644C194.56 69.1983 195.775 69.3559 206.106 69.3559C216.235 69.3559 217.45 69.1983 218.463 67.8585C221.704 63.0508 218.666 61.4746 205.803 61.4746C193.243 61.4746 193.142 61.3958 193.142 52.8839V47.3669L206.613 47.1305L219.983 46.8941L220.286 37.8305C220.59 27.9788 219.78 24.511 215.931 20.8856C213.5 18.6 213.095 18.5212 204.081 18.2847C197.801 18.1271 193.851 18.4424 192.23 19.0729ZM209.854 26.3237C211.475 27.1907 211.88 28.6881 212.184 33.4169L212.589 39.4068H202.764H192.939L193.344 33.4169C193.648 28.6881 194.053 27.1907 195.674 26.3237C198.105 24.9051 207.423 24.9051 209.854 26.3237Z" fill="white"/>
<path d="M226.769 19.0729C225.047 20.4127 225.25 22.383 228.187 30.7373C231.631 40.6678 232.846 43.978 237.201 57.3763C240.645 67.7796 240.848 69.0407 239.733 72.1932C238.417 75.661 237.201 76.8432 233.352 78.4195C230.01 79.6805 228.997 81.572 230.415 83.8576C231.327 85.4339 232.34 85.9068 234.872 85.9068C237.404 85.9068 239.024 85.1186 242.367 82.2813C244.798 80.311 247.026 77.5525 247.431 76.2127C247.735 74.7941 248.444 73.2966 248.849 72.9025C249.254 72.4296 250.065 70.5381 250.672 68.5678C251.179 66.5974 253.407 59.8983 255.433 53.5932C257.56 47.2881 259.788 40.1949 260.497 37.8305C261.206 35.4661 262.725 30.7373 263.941 27.2695C266.068 21.4373 266.068 20.9644 264.447 19.6246C262.32 17.733 259.788 17.733 257.661 19.4669C256.142 20.8068 253.103 29.7127 248.748 46.1059C247.634 50.4407 246.317 54.2237 245.912 54.539C245.507 54.8542 243.785 50.1254 241.962 43.8991C240.139 37.7517 238.417 31.9983 238.113 31.1313C237.809 30.2644 237.404 28.6881 237.1 27.5847C236.796 26.4813 236.188 24.2746 235.581 22.6983C234.264 18.6788 229.605 16.8661 226.769 19.0729Z" fill="white"/>
<path d="M350.439 18.9152C349.223 19.3093 346.995 21.2797 345.374 23.4076L342.538 27.1907V43.7415C342.538 59.0314 342.741 60.5288 344.665 63.0508C345.779 64.5483 348.21 66.5975 350.135 67.5432C353.072 69.1195 354.794 69.3559 364.213 69.3559C375.963 69.3559 377.482 68.883 377.482 65.2576C377.482 62.1051 374.95 61.4746 363.302 61.4746H353.072L351.553 58.6373C350.641 56.9822 350.135 54.1449 350.337 51.7805L350.641 47.6822L364.315 47.2881L377.988 46.8941L378.292 37.1212C378.495 27.9 378.393 27.2695 375.963 23.9593C372.114 18.8364 370.189 18.1271 360.77 18.2059C356.313 18.2059 351.654 18.5212 350.439 18.9152ZM366.948 25.8508C369.278 27.033 370.392 29.9491 370.392 34.5991V39.4068H360.77H351.148V33.8898C351.148 26.7178 352.768 25.2203 360.567 25.2203C363.403 25.2203 366.34 25.5356 366.948 25.8508Z" fill="white"/>
<path d="M398.853 20.2551L395.916 22.6195L394.802 20.728C394.194 19.7822 393.08 18.9152 392.371 18.9152C388.826 18.9152 388.623 20.4915 388.623 44.1356C388.623 68.2525 388.826 69.3559 392.776 69.3559C396.524 69.3559 396.929 67.622 396.726 50.0466C396.625 35.7025 396.929 32.6288 398.347 30.2644C400.575 26.5602 403.411 25.2203 408.88 25.2203C417.794 25.2203 417.996 25.8508 417.996 48.628C417.996 62.2627 418.3 67.7008 419.212 68.4102C421.136 69.9076 423.769 69.5136 425.491 67.622C426.808 66.1246 427.112 63.0508 427.112 49.5737C427.112 30.5008 426.2 25.9297 421.541 21.5949C418.3 18.6 418.097 18.5212 409.995 18.2847C402.094 17.9695 401.79 18.0483 398.853 20.2551Z" fill="white"/>
<path d="M483.224 18.9153C482.11 19.2305 479.882 20.8856 478.16 22.5407L475.222 25.6144L474.919 42.1653C474.513 60.6864 475.02 63.1297 480.287 67.4644L483.73 70.3017L494.062 69.9864L504.291 69.75L507.634 66.7551C511.787 63.0509 512.192 61.1593 512.192 43.7415C512.192 27.7424 511.381 24.4322 506.621 20.728C503.38 18.2059 503.177 18.1271 494.365 18.2059C489.402 18.2059 484.439 18.5212 483.224 18.9153ZM499.632 25.6932C503.38 26.4814 504.089 29.2398 504.089 43.978C504.089 61.8686 504.089 61.7898 493.758 62.1051C485.959 62.3415 485.959 62.3415 484.338 59.9771C483.123 58.0856 482.819 54.6966 482.819 43.5051C482.819 30.422 483.021 29.2398 484.946 27.2695C486.668 25.5356 487.782 25.2203 492.238 25.2203C495.176 25.2203 498.518 25.4568 499.632 25.6932Z" fill="white"/>
<path d="M532.652 20.0974C529.005 22.4619 528.803 22.4619 528.094 20.4127C527.689 19.2305 526.878 18.8364 525.156 19.0729L522.827 19.3093V43.6627C522.827 65.9669 522.928 68.0949 524.65 68.883C525.865 69.5136 526.878 69.5136 528.195 68.883C529.714 68.0949 530.018 66.0458 530.423 49.5737C530.828 33.1805 531.132 30.8949 532.854 28.9246C533.867 27.7424 535.589 26.4025 536.602 26.0085C539.438 24.7474 547.338 25.0627 549.06 26.4813C549.971 27.1119 550.782 27.7424 550.883 27.8212C550.984 27.9 551.389 36.9636 551.693 47.9974C552.098 65.2576 552.402 68.0949 553.82 68.8042C554.732 69.2771 556.251 69.3559 557.163 69.1195C558.581 68.6466 558.783 66.2822 558.783 47.0517C558.783 25.8508 558.783 25.378 556.454 22.7771C553.314 19.1517 550.275 18.1271 542.375 18.1271C536.703 18.1271 535.184 18.4424 532.652 20.0974Z" fill="white"/>
<path d="M104.213 19.861C103.504 20.4127 102.998 21.5161 102.998 22.4618C102.998 25.4568 104.922 26.0085 114.949 26.0085C126.597 26.0085 127.205 26.4025 127.306 34.0474V39.4068H117.988C107.657 39.4068 106.34 39.8796 101.883 44.9237C99.7564 47.2881 99.4525 48.5491 99.4525 54.3813C99.5538 60.0559 99.9589 61.6322 101.883 64.0754C105.732 68.9618 108.467 70.144 115.962 70.144C122.141 70.144 122.951 69.9076 125.989 67.622L129.231 65.1788L130.243 67.2279C130.851 68.4101 131.965 69.3559 132.776 69.3559C136.321 69.3559 136.624 67.4644 136.219 47.5246C135.814 26.4813 135.814 26.1661 130.041 21.4373L126.901 18.9152H116.165C109.176 18.9152 105.023 19.2305 104.213 19.861ZM127.306 51.7805C127.306 56.1152 126.901 57.3762 124.673 59.6618C122.343 62.1051 121.735 62.2627 116.165 62.2627C108.973 62.2627 108.062 61.3957 108.062 54.6178C108.062 47.4457 109.379 46.5 119.305 46.5H127.306V51.7805Z" fill="white"/>
<path d="M149.488 21.8313C145.538 25.0627 143.512 28.6881 143.512 32.55C143.512 36.0178 145.639 41.1407 147.867 43.111C149.994 44.9237 159.312 48.0763 162.655 48.0763C163.668 48.0763 165.693 48.9432 167.213 50.0466C170.049 52.0958 170.656 55.7212 168.833 59.4254C167.922 61.4746 167.719 61.4746 156.78 61.4746C144.423 61.4746 143.107 61.9475 143.714 66.361L144.018 68.9619L155.464 69.1983C165.795 69.3559 167.314 69.1983 170.555 67.7008C174.91 65.5729 177.848 60.8441 177.949 55.8788C177.949 46.8152 175.518 44.2144 163.668 40.9042C151.817 37.6729 149.589 35.1508 153.033 28.7669L154.552 26.0085H164.073C172.176 26.0085 173.796 25.772 175.316 24.511C176.328 23.6441 176.936 22.1466 176.734 21.122C176.43 19.3881 176.126 19.3093 164.782 19.0729L153.134 18.8364L149.488 21.8313Z" fill="white"/>
<path d="M439.57 21.4373C435.113 25.0627 432.885 30.1068 433.695 34.9932C434.81 42.1652 437.646 44.5297 447.47 46.8941C456.89 49.1797 458.206 49.7313 459.422 51.7017C460.941 54.3814 460.84 56.3517 459.017 59.1102L457.396 61.4746H447.268C435.721 61.4746 433.189 62.1839 433.189 65.2576C433.189 68.883 434.708 69.3559 446.457 69.3559C459.624 69.3559 462.46 68.4102 466.107 62.7356C469.854 56.9034 469.55 51.7017 465.398 46.8152C462.967 44.0568 460.941 42.7169 458.004 41.9288C446.862 38.8551 445.039 38.2246 443.723 37.2788C441.798 35.7813 441.9 29.9491 443.925 27.7424C445.343 26.1661 446.356 26.0085 454.358 26.0085C462.562 26.0085 463.372 25.8508 465.6 24.0381C467.525 22.383 467.829 21.6737 467.018 20.6491C466.107 19.5458 463.878 19.3093 454.358 19.0729L442.811 18.8364L439.57 21.4373Z" fill="white"/>
<path d="M595.325 0.999283C593.625 2.49674 592.725 5.25521 583.225 36.9383C580.725 45.6078 577.925 54.6713 577.125 57.0357C576.425 59.4001 575.025 64.1289 574.125 67.4391C572.625 73.1137 572.625 73.7442 574.125 75.5569C575.925 77.6849 577.925 78.0789 579.525 76.5027C580.525 75.6357 585.525 60.0306 589.725 45.2137C590.725 41.5095 592.525 35.5984 593.725 32.0518C594.825 28.4264 596.625 22.4366 597.725 18.6535C598.725 14.7917 600.125 10.1417 600.725 8.17132C602.025 4.07301 601.425 1.39335 598.825 0.368774C597.425 -0.261734 596.625 -0.104111 595.325 0.999283Z" fill="white"/>
<path d="M611.055 15.9703C608.255 19.3593 610.455 21.7237 624.655 30.1568C631.755 34.3339 637.955 38.1958 638.555 38.7475C639.355 39.4568 638.255 40.4814 634.355 42.8458C621.355 50.5695 610.655 57.6627 610.155 59.0025C609.355 60.8153 612.355 64.4407 614.555 64.4407C615.455 64.4407 618.455 63.022 621.155 61.2881C626.155 58.1356 627.555 57.3475 633.155 54.0373C634.855 53.0915 636.355 52.0669 636.655 51.7517C636.955 51.4364 639.455 49.939 642.155 48.2839C648.755 44.5008 651.655 41.6636 651.655 39.1415C651.655 36.6195 650.555 35.5949 642.855 30.8661C639.355 28.7381 633.455 25.1127 629.855 22.8271C620.555 17.0737 614.955 14 613.755 14C613.155 14 611.955 14.867 611.055 15.9703Z" fill="white"/>
</svg>
