<svg width="700" height="560" viewBox="0 0 700 560" fill="none" xmlns="http://www.w3.org/2000/svg">
<rect x="26.5147" y="21" width="656.485" height="515" rx="44" fill="#FF4040"/>
<path d="M55.9814 17.4C40.1456 22.5 28.3188 34 22.4054 50L20 56.5V278.5C20 491.7 20.1002 500.7 21.8041 505.8C27.6172 522.3 40.0454 534.5 56.2821 539.7L63.6989 542H351.249H638.8L646.217 539.7C663.656 534.1 676.886 520.2 681.497 502.5C682.8 497.3 683 471.1 683 278.5C683 85.9 682.8 59.7 681.497 54.5C676.886 36.8 663.656 22.9 646.217 17.3L638.8 15H350.949L63.0975 15.1L55.9814 17.4ZM640.504 21.6C644.212 22.4 649.524 24.3 652.331 25.7C658.845 29 668.968 39.1 672.376 45.8C678.289 57.4 677.989 45.7 677.989 279C677.989 512.9 678.289 499.5 672.276 511.4C668.968 517.9 658.845 528 652.13 531.4C640.404 537.3 658.645 537 350.448 537C82.4413 537 67.7079 536.9 60.9927 535.2C52.0726 532.9 43.6535 528 37.8404 521.5C33.0295 516.2 27.7175 506.7 26.4145 501C25.312 496.4 25.312 60.5 26.4145 56C29.1206 44.7 39.6444 31.3 50.2685 25.7C61.1932 19.9 43.5533 20.2 350.949 20.1C603.42 20 634.49 20.2 640.504 21.6Z" fill="black"/>
<path d="M281.792 54.2C278.785 55.3 278.785 56.5 281.692 62.1C282.895 64.5 282.795 64.9 280.79 66.7C277.282 69.8 268.061 75.5 262.048 78.3C257.137 80.6 243.305 85.4 242.002 85.3C241.702 85.3 240.499 85.6 239.196 86.1C234.886 87.8 206.522 91.5 190.386 92.6C151.598 95.1 128.746 98.7 112.209 104.9C102.787 108.4 84.5461 119.6 82.3411 123.2C81.5393 124.4 81.9402 126.6 83.8445 131.7C87.3524 140.7 101.284 178.1 107.197 194.5C109.803 201.6 112.509 208.8 113.211 210.5C113.912 212.1 115.015 215.1 115.717 217C116.418 218.9 117.22 221.4 117.721 222.5C118.122 223.6 119.024 226.1 119.625 228C124.436 241.6 127.142 248.6 127.844 249.4C128.345 250 128.746 251.1 128.746 252C128.746 252.9 129.648 255.6 130.851 257.9C131.953 260.3 133.056 263 133.356 263.9C134.459 268.8 137.265 275.2 138.268 275.7C138.969 275.9 142.678 273.9 146.386 271.2C156.108 264.2 166.632 258.9 173.848 257.4C175.151 257.1 176.755 256.5 177.356 256.1C177.857 255.6 179.761 255 181.365 254.8C183.069 254.5 187.78 253.6 191.889 252.7C202.112 250.5 203.816 250.2 214.841 249C235.788 246.8 245.41 246 252.927 246C257.137 246 263.15 245.6 266.157 245C269.164 244.5 273.874 243.9 276.681 243.6C283.195 243 294.922 240.6 302.138 238.4C305.145 237.4 308.252 236.5 308.954 236.4C311.961 235.8 331.004 226 334.612 223.1C336.817 221.4 339.022 220.1 339.523 220.3C340.625 220.6 340.826 221.2 348.243 241.5C351.049 249.2 353.855 256.5 354.457 257.7C355.259 259.4 355.259 260.6 354.557 262.2C353.254 264.9 346.338 283.7 342.029 296C340.425 300.7 338.721 305.4 338.22 306.5C334.411 315.2 325.19 340.9 325.19 342.8C325.19 343.9 330.503 346 333.309 346C334.311 346 335.313 345 335.714 343.7C336.015 342.5 336.717 340.6 337.117 339.5C337.619 338.4 338.521 336.1 339.222 334.5C339.924 332.8 341.728 327.4 343.432 322.5C345.035 317.5 346.739 313.1 347.341 312.6C347.842 312 348.243 310.7 348.243 309.5C348.243 308.3 348.644 307 349.145 306.4C349.646 305.9 350.748 303.5 351.65 301C358.165 282.7 359.869 278.2 360.771 278C361.372 277.9 365.281 287.2 369.491 298.7C373.8 310.1 379.413 325.1 381.919 332C384.525 338.9 386.93 344.9 387.431 345.4C388.233 346.3 394.046 345.5 396.251 344.1C397.454 343.3 397.454 342.7 396.151 339.8C394.648 336.5 394.146 335.3 388.333 318.5C386.629 313.5 384.525 308.3 383.723 306.7C382.921 305.2 382.52 304 382.821 304C383.122 304 382.821 303 382.22 301.8C380.917 299.3 369.491 268.6 368.789 265.6C368.589 264.6 367.887 263.2 367.185 262.4C366.283 261.3 366.384 260.3 367.286 258C367.987 256.4 368.488 254.7 368.488 254.3C368.488 253.9 369.09 252.4 369.892 251C370.593 249.6 372.598 244.7 374.201 240C378.912 226.3 380.917 221 381.618 220.3C382.019 220 384.926 221.5 388.033 223.7C396.552 229.6 412.588 237 421.408 239.1C429.426 240.9 440.151 243.1 442.957 243.4C459.494 245.2 469.517 246.1 483.549 247C498.182 248 508.806 249 519.33 250.5C525.343 251.4 542.181 255.1 546.19 256.5C563.129 262.4 565.835 263.8 578.163 273.3C580.869 275.4 583.475 276.7 583.876 276.3C584.277 275.9 586.281 271 588.286 265.5C590.29 260 592.094 254.8 592.495 254C592.796 253.2 593.197 252 593.397 251.5C594.199 248.6 605.926 217.7 606.527 216.7C606.928 216 607.329 214.8 607.529 214C607.629 213.2 608.131 211.7 608.632 210.5C610.135 207.5 612.641 200.6 615.948 190.6C617.652 185.7 620.058 179.2 621.461 176.3C622.764 173.3 623.866 170.7 623.866 170.4C623.866 170.1 625.871 164.3 628.376 157.5C635.593 137.4 637.297 133.1 639 129.8C640.604 126.6 639.903 123.4 637.196 120.8C634.19 118.1 621.962 110.1 617.853 108.2C610.837 105 597.106 100.5 591.293 99.5C566.737 95.3 556.514 94.1 532.159 92.5C515.922 91.5 490.966 88.4 485.754 86.8C483.95 86.3 481.444 85.7 480.241 85.5C470.319 84.1 441.454 69.7 439.75 65.4C439.449 64.5 439.649 62.9 440.251 61.7C440.852 60.5 441.454 58.4 441.654 57C441.955 54.9 441.454 54.4 438.346 53.6C436.342 53.1 434.037 52.9 433.235 53.2C432.433 53.6 430.328 57.8 428.524 62.6C426.72 67.5 424.816 72.4 424.415 73.5C424.014 74.6 422.912 77.7 421.909 80.5C420.105 85.8 418.702 89.4 417.299 92.2C416.798 93.2 416.397 94.8 416.397 95.8C416.397 96.8 415.996 98 415.495 98.6C415.094 99.1 412.789 104.9 410.483 111.5C408.078 118.1 405.873 124.4 405.372 125.5C404.971 126.6 404.069 129.1 403.367 131C402.666 132.9 401.563 135.8 400.862 137.5C400.06 139.1 397.454 146.3 394.848 153.5C392.242 160.6 387.632 173.2 384.424 181.5C381.217 189.7 374.903 206.8 370.293 219.5C365.682 232.1 361.673 242.9 361.272 243.3C360.871 243.7 359.368 240.6 357.864 236.3C354.757 227.4 350.448 216.3 349.145 213.8C348.644 212.8 348.243 211.2 348.243 210.2C348.243 209.2 347.842 208 347.341 207.5C346.839 206.9 345.136 202.9 343.732 198.5C341.127 190.9 339.022 184.9 337.218 180.5C336.817 179.4 335.113 175.1 333.409 171C331.805 166.9 329.2 159.9 327.696 155.5C326.293 151.1 324.489 146.1 323.787 144.5C323.086 142.8 321.683 139.2 320.68 136.5C319.778 133.7 316.471 124.7 313.464 116.5C308.352 102.6 307.35 100 305.045 94.5C304.544 93.4 301.437 84.8 298.129 75.5C294.722 66.1 291.514 57.3 290.913 55.7C289.81 52.7 287.004 52.3 281.792 54.2ZM286.904 76.5C288.006 79.8 290.111 85.6 291.514 89.5C292.917 93.3 294.12 96.6 294.12 96.7C294.12 98.2 270.266 111.9 267.46 112C266.859 112 265.856 110.8 265.255 109.2C264.654 107.7 262.649 102.4 260.745 97.5C255.232 83.6 255.032 85 263.852 80.8C268.061 78.7 274.275 75.3 277.583 73.1C280.89 70.9 283.897 69.4 284.198 69.8C284.599 70.2 285.801 73.2 286.904 76.5ZM443.358 72.4C445.964 74.3 451.877 77.8 456.488 80.1C461.198 82.4 465.207 84.4 465.408 84.6C466.009 85.1 456.989 109.9 455.585 111.3C453.982 112.9 436.643 104.1 430.328 98.2L427.622 95.8L429.627 90.7C430.629 87.8 432.934 81.8 434.638 77.2C436.242 72.7 437.845 69 438.146 69C438.447 69 440.752 70.5 443.358 72.4ZM221.857 96.7C227.068 111.8 229.173 117.7 229.975 119.1C230.677 120.5 230.276 120.9 227.57 121.4C224.463 122 201.611 123.9 197.401 124C195.898 124 194.996 122.8 193.793 118.7C192.891 115.9 190.686 109.7 188.982 105.1C187.278 100.5 185.976 96.6 186.176 96.4C186.376 96.2 210.03 93.8 218.95 93.1C219.952 93 221.055 94.5 221.857 96.7ZM522.637 95.1C528.951 95.7 534.564 96.6 535.065 97C535.566 97.5 535.366 99.3 534.564 101.2C533.863 103 533.061 104.9 532.961 105.5C532.86 106 531.257 110.5 529.553 115.3C527.849 120.1 526.646 124.3 527.047 124.7C527.348 125.1 534.765 125.9 543.484 126.7C552.104 127.4 559.721 128.2 560.423 128.5C561.325 128.8 560.824 131.3 558.719 137.2C554.309 150 553.106 152.9 552.405 153.6C552.004 154 551.703 155.2 551.703 156.2C551.703 158.3 551.903 158.3 544.186 157C540.878 156.5 533.662 155.7 528.15 155.4C522.637 155.1 517.726 154.5 517.325 154.1C516.624 153.4 517.927 149.2 521.334 140C525.143 130.1 526.446 125.4 525.844 124.8C525.444 124.4 520.633 123.8 515.12 123.5C509.608 123.1 501.99 122.4 498.282 121.8C490.464 120.7 490.665 122.2 496.177 107C501.79 91.7 500.888 92.9 506.3 93.5C509.006 93.7 516.323 94.5 522.637 95.1ZM151.397 109.5C153.302 114.4 155.306 119.2 155.707 120C156.208 120.9 156.91 123 157.311 124.8C157.912 127.7 157.712 128 155.607 128C154.304 128 150.094 128.7 146.286 129.6C142.377 130.4 137.666 131.5 135.662 131.9C133.757 132.3 130.65 133.4 128.846 134.3C125.639 135.9 125.639 135.9 124.537 133.2C123.935 131.7 123.133 129.6 122.632 128.5C121.229 125.2 116.518 112.7 115.717 109.9C114.915 107.4 115.115 107.2 122.632 105.1C133.156 102.1 142.878 100.1 145.684 100.3C147.589 100.5 148.491 101.9 151.397 109.5ZM595.101 104C601.015 105.5 606.126 107 606.427 107.3C607.028 107.8 604.222 116.5 599.611 128.2C596.905 135.4 596.504 135.9 594.6 134.9C591.894 133.4 580.969 130.6 571.949 129C567.94 128.3 564.432 127.3 564.231 127C563.931 126.6 565.334 122.4 567.238 117.6C569.142 112.9 570.746 108.6 570.746 108.1C570.746 107.6 571.448 105.6 572.249 103.5L573.853 99.8L579.065 100.5C581.971 100.9 589.188 102.4 595.101 104ZM267.761 119.7C274.275 137.4 275.979 142.5 275.278 143.2C274.476 143.9 261.446 147.6 256.034 148.5C254.13 148.8 250.822 149.6 248.617 150.1C245.61 150.9 244.408 150.8 243.405 149.8C242.403 148.8 236.39 133.3 233.383 123.9C232.882 122.6 234.084 122 239.697 121C243.405 120.4 247.916 119.4 249.62 118.9C251.323 118.4 253.629 117.7 254.631 117.5C255.633 117.3 258.339 116.4 260.544 115.6C262.749 114.8 264.754 114.1 265.054 114C265.355 114 266.558 116.6 267.761 119.7ZM469.517 118C473.125 119 479.039 120.4 482.747 121.1C489.963 122.4 489.863 122.1 486.556 129.5C485.654 131.7 483.549 137.4 481.945 142.2C478.838 151.5 478.638 151.7 472.524 150C470.62 149.5 467.512 148.8 465.708 148.5C462.601 148 455.686 146.2 448.971 144.2C447.267 143.7 446.064 142.7 446.164 141.9C446.264 141.1 448.068 135.8 450.273 130C456.989 112.3 455.886 114 459.695 115.2C461.499 115.7 465.909 117 469.517 118ZM199.506 138C202.012 144.8 204.517 151.2 205.019 152.2C206.121 154.3 204.718 154.8 193.893 155.4C185.875 155.9 176.855 156.8 173.147 157.6C170.641 158.1 170.039 161.5 171.743 164.8C172.345 165.7 174.55 171.2 176.654 177L180.664 187.5L174.449 188.8C171.142 189.5 164.527 191.1 159.816 192.2C155.106 193.3 150.395 194.4 149.293 194.7C147.488 195.1 146.687 193.5 142.377 181.8C136.163 164.8 136.363 165.4 137.165 166.2C137.566 166.5 140.372 165.9 143.379 164.9C149.092 162.9 161.32 160 166.131 159.6C167.634 159.5 169.338 158.9 169.839 158.4C170.641 157.6 168.436 150.1 163.825 138.5C161.019 131.5 160.618 129.8 161.42 129C162.222 128.2 186.577 125.5 192.59 125.5C194.595 125.5 195.497 127.1 199.506 138ZM307.049 131.7C307.751 133.8 308.954 136.8 309.756 138.5C311.961 143.5 316.17 155.2 316.17 156.4C316.17 158.2 292.015 173 289.009 173C288.708 173 287.405 169.7 286.102 165.7C284.799 161.8 283.396 158 283.095 157.5C282.694 156.9 281.893 154.5 281.091 152C280.389 149.5 279.387 147.1 278.886 146.6C277.182 144.5 278.284 143.3 284.899 140.5C291.113 137.8 302.539 130.7 303.742 128.8C304.744 127.2 305.746 128.1 307.049 131.7ZM422.811 132.5C426.42 135 432.734 138.7 436.943 140.6C442.456 143.1 444.36 144.5 443.659 145.3C443.157 146 440.652 152.4 437.946 159.7L433.235 172.9L430.529 171.9C425.117 169.8 412.588 162.7 409.08 159.7L405.472 156.5L407.276 151.5C408.278 148.7 410.183 143.6 411.486 140C414.092 132.3 415.795 128 416.096 128C416.196 128 419.203 130 422.811 132.5ZM129.748 151.4C132.454 159 134.76 165.5 134.76 165.8C134.76 166.2 133.256 167.1 131.552 167.8C129.748 168.5 127.543 169.5 126.742 170C125.94 170.5 123.033 172.1 120.227 173.6C117.521 175 113.311 177.8 111.006 179.7L106.696 183.1L105.694 180.5C105.193 179.1 104.692 177.3 104.692 176.7C104.692 176 103.99 174.4 103.088 173.2C102.286 172 101.785 171 102.086 171C102.386 171 101.484 168.5 100.081 165.5C98.7783 162.4 97.6758 159.1 97.6758 158.2C97.6758 157.2 97.1746 155.9 96.473 155.2C95.0699 153.8 95.6712 153.3 105.694 146.7C113.111 141.9 123.534 136.7 124.436 137.4C124.537 137.5 126.942 143.8 129.748 151.4ZM616.449 146.5C620.358 149 624.067 151.6 624.768 152.3C625.57 153.4 624.868 156.4 621.761 165.1C619.556 171.4 617.452 177.5 617.151 178.8C616.85 180 616.249 181.3 615.748 181.6C615.247 181.9 612.039 180.2 608.532 177.8C605.024 175.4 598.81 171.9 594.7 170C590.691 168.1 587.083 166.4 586.883 166.3C586.482 166 591.693 151.1 592.796 149.5C593.097 148.9 594.099 146.5 594.8 144C596.905 136.9 597.206 136.8 603.62 139.6C606.727 141 612.541 144.1 616.449 146.5ZM243.305 155C243.706 156.6 244.909 159.9 246.011 162.2C247.114 164.5 248.016 167 248.016 167.7C248.016 168.4 248.417 169.8 248.918 170.8C249.419 171.7 250.221 173.6 250.822 175C253.228 180.9 253.328 180.8 246.212 181.9C242.503 182.5 234.986 183.3 229.474 183.6C223.961 183.9 219.151 184.4 218.75 184.6C218.349 184.9 217.647 183.6 217.046 181.8C216.545 180 214.239 173.7 212.034 167.8C209.729 161.9 207.925 156.6 207.925 156.1C207.925 155.4 211.032 155 216.244 154.9C222.659 154.9 235.888 153.4 242.103 152.1C242.503 152.1 243.005 153.3 243.305 155ZM492.068 154C495.977 154.5 502.291 155 506.2 155C510.109 155 513.517 155.3 513.817 155.6C514.218 155.9 513.617 158.3 512.615 160.8C505.699 179 503.193 184.9 502.692 184.6C502.391 184.4 497.58 183.9 492.068 183.6C479.941 182.8 469.517 181.1 469.517 179.9C469.517 178.8 476.332 160 477.635 157.8C478.137 156.8 478.537 155.1 478.537 154C478.537 152.3 479.039 152.1 481.845 152.5C483.549 152.8 488.259 153.4 492.068 154ZM565.735 161.4C569.343 162.2 574.054 163.4 576.259 164C578.464 164.6 581.37 165.4 582.573 165.7C585.479 166.4 585.479 166.6 579.165 183.1L574.354 195.7L569.744 194.3C567.238 193.6 563.83 192.5 562.026 191.9C560.322 191.4 557.516 190.7 555.812 190.5C549.097 189.7 541.68 187.6 541.68 186.6C541.68 186 543.986 179.6 546.892 172.3L552.004 159.1L555.612 159.5C557.616 159.8 562.127 160.6 565.735 161.4ZM291.113 183C292.817 187.7 295.423 194.1 296.726 197.4C299.332 203.7 299.332 203.9 296.526 204.4C295.423 204.7 291.013 205.7 286.603 206.8C269.865 211 267.259 211.4 265.556 210C264.754 209.3 264.052 208.1 264.052 207.4C264.052 206.6 263.651 205.2 263.05 204.2C260.945 200.6 255.132 183 255.934 182.6C256.335 182.3 258.74 181.8 261.146 181.4C266.357 180.7 283.997 176.2 286.102 175C286.904 174.6 287.706 174.3 287.806 174.4C287.806 174.4 289.309 178.3 291.113 183ZM438.848 176.1C440.551 176.5 444.661 177.6 447.968 178.5C454.784 180.4 455.485 180.6 462 181.5C466.51 182.2 466.61 182.3 465.909 185.4C465.608 187.1 464.806 189 464.305 189.7C463.804 190.3 463.203 192.1 462.902 193.6C462.601 195.2 462 196.9 461.599 197.5C461.098 198 460.196 200.6 459.494 203.1C458.693 205.7 457.49 208.6 456.788 209.5C455.485 211.4 455.686 211.4 437.946 207.8C433.937 207 424.916 204.3 423.613 203.5C423.413 203.3 428.925 187 430.429 183.5C430.93 182.4 431.832 179.8 432.433 177.7C433.135 175.6 434.037 174.3 434.638 174.6C435.239 175 437.044 175.6 438.848 176.1ZM222.057 198C224.262 204.3 226.567 210.7 226.968 212.2L227.77 214.8L217.146 215.5C211.233 215.9 203.515 216.6 200.007 217.1C192.691 218.2 192.891 218.3 190.386 210.5C189.483 207.7 187.379 202 185.775 197.6C184.071 193.3 182.969 189.6 183.169 189.4C183.871 188.7 187.98 188 195.397 187.5C208.627 186.6 215.342 185.9 215.843 185.4C216.845 184.5 217.948 186.9 222.057 198ZM528.15 187.5C530.956 187.7 534.564 188.2 536.368 188.5C539.475 189 539.576 189.2 538.473 191.8C536.469 196.8 535.867 198.4 532.159 208.3C528.551 217.8 528.35 218.1 525.844 217.5C523.239 217 500.387 215.1 495.877 215H493.672L495.476 209.7C497.18 205 501.189 194.3 503.694 188.1C504.797 185.5 503.995 185.6 528.15 187.5ZM331.405 196.5C332.808 200.3 335.013 206.4 336.215 209.9L338.42 216.3L335.113 218.9C333.309 220.3 330.903 222 329.701 222.7C325.391 225.2 319.478 228.3 315.468 230L311.159 231.9L309.555 228.2C307.15 222.7 306.548 221.3 303.341 212.5L300.334 204.6L308.553 200.5C313.163 198.2 319.277 194.5 322.284 192.3C325.291 190 327.997 188.5 328.298 188.9C328.598 189.2 330.001 192.6 331.405 196.5ZM411.686 199.6C416.798 202.2 421.007 204.4 421.208 204.5C421.508 204.8 411.586 231.1 410.985 231.8C409.982 232.7 390.939 222.3 384.926 217.6C382.821 215.9 382.921 215.4 388.634 202C389.436 200.1 390.839 196.2 391.841 193.3L393.645 188.2L398.055 191.5C400.461 193.3 406.575 197 411.686 199.6ZM148.09 201.2C148.892 203 150.696 207.6 152.099 211.5C153.502 215.3 155.406 220.2 156.308 222.4C157.21 224.5 157.812 226.3 157.611 226.4C157.411 226.6 154.204 228.1 150.295 229.9C142.778 233.3 133.958 238.9 131.853 241.4C130.049 243.5 127.744 243.4 127.744 241.2C127.744 240.3 126.341 235.7 124.637 231C122.933 226.3 120.828 220.6 120.026 218.2L118.523 213.8L121.83 211C123.735 209.4 125.639 208.1 126.14 208C126.641 208 127.844 207.3 128.846 206.4C130.751 204.7 143.68 198.2 145.384 198.1C146.085 198 147.288 199.5 148.09 201.2ZM583.776 201.3C590.791 204.8 600.914 211.3 602.718 213.4C603.52 214.4 602.919 217 600.213 223.6C598.308 228.5 596.504 233.2 596.304 234C595.903 235.6 593.498 242.2 593.097 242.9C592.996 243.1 591.192 241.9 589.088 240.3C582.873 235.6 577.662 232.4 571.047 229.4C563.73 226.1 563.83 227.3 569.744 211.5C571.949 205.4 574.054 199.9 574.254 199.2C574.956 197.3 576.659 197.7 583.776 201.3ZM265.956 215.2C266.458 217 268.663 223.3 270.868 229.3C273.073 235.2 274.476 240.2 274.075 240.5C273.574 240.8 267.259 241.5 259.843 242C252.526 242.6 245.109 243.2 243.405 243.5C240.399 244 240.198 243.9 238.093 237.8C236.891 234.3 235.488 230.6 234.886 229.5C234.385 228.4 233.082 225 232.08 221.8L230.176 216.2L232.481 215.7C233.784 215.5 238.394 215.2 242.704 215.1C248.717 214.9 263.25 212.9 264.754 212.1C264.854 212.1 265.355 213.5 265.956 215.2ZM467.212 214C469.818 214.5 476.132 215.2 481.043 215.4C486.054 215.6 490.464 215.9 490.865 215.9C491.968 216 491.266 218.2 485.854 232.3L481.344 244.1L478.237 243.5C476.433 243.2 469.016 242.5 461.699 242C454.383 241.5 447.968 240.8 447.567 240.5C447.066 240.3 449.071 234 451.877 226.5C457.59 211.4 456.989 211.9 467.212 214ZM546.792 222.3C550.4 223.2 555.411 224.7 557.917 225.7L562.527 227.5L557.616 240.9C555.01 248.3 552.605 254.4 552.405 254.6C552.204 254.8 550.5 254.5 548.596 254C539.275 251.2 530.655 249.1 525.945 248.5C523.038 248.1 520.432 247.4 520.132 247C519.831 246.5 521.434 241.3 523.539 235.3C530.054 217.4 528.651 219.2 534.865 220.1C537.771 220.5 543.184 221.5 546.792 222.3ZM194.795 226.2C195.998 229.7 197.401 233.4 197.903 234.5C198.404 235.6 199.707 238.8 200.809 241.7C203.014 247.7 203.515 247.1 193.392 249C185.875 250.5 181.766 251.4 174.85 253.4C171.844 254.2 169.338 254.8 169.338 254.7C169.238 254.6 167.534 250 165.529 244.5C163.625 239 161.32 232.9 160.418 230.9L158.914 227.2L165.63 225.1C169.338 223.9 173.447 222.7 174.85 222.4C176.254 222.2 178.96 221.6 180.864 221.1C182.768 220.6 186.276 220.2 188.481 220.1L192.59 220L194.795 226.2Z" fill="black"/>
<path d="M530.756 385.6C506.801 392 495.075 416.7 503.494 443C509.006 460.2 524.441 470.3 544.386 469.9C563.329 469.5 575.757 461.9 583.174 446C586.081 439.9 586.181 438.8 586.281 427C586.281 415 586.181 414.2 583.074 407.8C577.461 395.9 568.942 388.8 556.213 385.5C548.897 383.6 537.972 383.7 530.756 385.6ZM556.213 401.7C561.224 404.3 563.83 407.1 567.138 413.4C569.343 417.6 569.744 419.6 569.744 426.9C569.744 436.4 567.739 442.2 562.928 447.3C556.414 454.2 543.985 456.9 534.965 453.5C523.138 449 516.924 438.5 517.826 424.6C518.628 413.4 523.84 405.6 533.662 401C539.475 398.3 550.2 398.7 556.213 401.7Z" fill="black"/>
<path d="M140.974 427.1L141.274 469.2H149.293H157.311L157.611 451.6L157.812 434L176.153 434.2L194.395 434.5L194.695 452L194.896 469.5L203.215 469.3L211.433 469.2L211.734 427.1L211.934 385H203.415H194.896L194.695 401.7L194.395 418.5L176.153 418.8L157.812 419V402V385H149.293H140.773L140.974 427.1Z" fill="black"/>
<path d="M232.982 415.3C232.982 451 233.383 453.3 240.8 460.9C247.214 467.5 254.13 470 266.057 470C277.583 470 284.899 467.5 290.712 461.5C297.728 454.3 298.129 452 298.129 416.3V385H290.111H282.093V413.4C282.093 431.9 281.692 442.9 280.99 445.1C277.783 454.5 267.159 458.6 258.039 454C250.02 449.9 249.018 445.6 249.018 412.2V385H241H232.982V415.3Z" fill="black"/>
<path d="M320.38 427.1L320.68 469.2H328.698H336.717L337.218 438.9L337.719 408.6L347.641 424.5C353.054 433.3 358.967 442.7 360.771 445.5C362.475 448.2 366.384 454.5 369.29 459.3C372.197 464.1 375.003 468.3 375.504 468.6C376.005 468.9 380.516 469.2 385.627 469.2H394.848L395.149 427.1L395.349 385H386.83H378.311L378.11 415.2L377.81 445.5L358.867 415.2L339.824 385H330.001H320.179L320.38 427.1Z" fill="black"/>
<path d="M418.401 427V469L433.736 469.1C452.779 469.2 453.882 469.2 459.995 467.8C479.941 463.4 489.963 447.3 488.259 422.3C487.357 409.1 484.551 402.2 477.535 395.1C469.417 387.1 461.198 385 437.244 385H418.401V427ZM458.292 401.4C462.702 403.7 468.314 410.4 469.617 415.2C471.321 420.7 471.321 433.3 469.617 438.8C468.214 443.7 461.9 451.2 457.69 452.9C455.986 453.6 450.875 454 444.861 453.8L434.939 453.5L434.638 427.5C434.538 413.2 434.638 400.9 434.939 400.1C435.64 398.2 454.082 399.2 458.292 401.4Z" fill="black"/>
</svg>
